<svg version="1.1" xmlns="http://www.w3.org/2000/svg" xmlns:xlink="http://www.w3.org/1999/xlink" x="0px" y="0px" width="32px" height="32px" viewBox="0 0 32 32" enable-background="new 0 0 32 32" xml:space="preserve" class="web-api">
<g>
  <g>
    <g>
      <g>
        <path fill="#f59b23" d="M31.285,31.595H0.715C0.32,31.595,0,31.275,0,30.881V1.119c0-0.395,0.32-0.715,0.715-0.715h30.57
          C31.68,0.405,32,0.725,32,1.119v29.761C32,31.275,31.68,31.595,31.285,31.595z M1.43,30.166H30.57V1.834H1.43V30.166z"></path>
        <rect x="0.715" y="5.182" fill="#f59b23" width="30.57" height="1.43"></rect>
        <g>
          <g>
            <path fill="#f59b23" d="M21.815,25.92H21.1v-1.43h0.715c0.856,0,1.553-0.696,1.553-1.553v-2.486
              c0-0.907,0.407-1.72,1.047-2.268c-0.641-0.547-1.047-1.361-1.047-2.268v-2.486c0-0.856-0.696-1.554-1.553-1.554H21.1v-1.43
              h0.715c1.644,0,2.982,1.339,2.982,2.983v2.486c0,0.856,0.697,1.553,1.553,1.553v1.43c-0.856,0-1.553,0.696-1.553,1.553v2.486
              C24.797,24.583,23.459,25.92,21.815,25.92z"></path>
          </g>
          <g>
            <path fill="#f59b23" d="M10.9,25.92h-0.715c-1.645,0-2.983-1.338-2.983-2.982v-2.486c0-0.856-0.696-1.553-1.553-1.553v-1.43
              c0.856,0,1.553-0.696,1.553-1.553v-2.486c0-1.645,1.338-2.983,2.983-2.983H10.9v1.43h-0.715c-0.856,0-1.553,0.697-1.553,1.554
              v2.486c0,0.907-0.407,1.72-1.047,2.268c0.641,0.547,1.047,1.361,1.047,2.268v2.486c0,0.856,0.697,1.553,1.553,1.553H10.9
              V25.92z"></path>
          </g>
          <g>
            <g>
              <g>
                <circle fill="#f59b23" cx="20.187" cy="18.184" r="1.167"></circle>
              </g>
              <g>
                <circle fill="#f59b23" cx="16" cy="18.184" r="1.167"></circle>
              </g>
              <g>
                <circle fill="#f59b23" cx="11.813" cy="18.184" r="1.167"></circle>
              </g>
            </g>
          </g>
        </g>
      </g>
    </g>
  </g>
</g>
</svg>