<svg version="1.1" xmlns="http://www.w3.org/2000/svg" xmlns:xlink="http://www.w3.org/1999/xlink" x="0px" y="0px" width="32px" height="32px" viewBox="0 0 32 32" enable-background="new 0 0 32 32" xml:space="preserve" class="android-sdk">
<g>
  <g>
    <g>
      <path fill="#dc2d73" d="M25.121,32H6.879c-1.146,0-2.079-0.932-2.079-2.079V2.079C4.801,0.932,5.733,0,6.879,0h18.241
        c1.146,0,2.079,0.932,2.079,2.079v27.843C27.199,31.068,26.267,32,25.121,32z M6.879,1.451c-0.346,0-0.628,0.281-0.628,0.628
        v27.843c0,0.347,0.282,0.628,0.628,0.628h18.241c0.346,0,0.628-0.281,0.628-0.628V2.079c0-0.347-0.282-0.628-0.628-0.628H6.879z"></path>
      <rect x="5.526" y="22.668" fill="#dc2d73" width="20.948" height="1.451"></rect>
      <path fill="#dc2d73" d="M18.409,28.155h-4.421c-0.4,0-0.725-0.325-0.725-0.725c0-0.4,0.325-0.725,0.725-0.725h4.421
        c0.4,0,0.725,0.325,0.725,0.725C19.134,27.83,18.809,28.155,18.409,28.155z"></path>
    </g>
  </g>
</g>
</svg>