<?xml version="1.0" encoding="utf-8"?>
<!-- Generator: Adobe Illustrator 17.0.0, SVG Export Plug-In . SVG Version: 6.00 Build 0)  -->
<!DOCTYPE svg PUBLIC "-//W3C//DTD SVG 1.1//EN" "http://www.w3.org/Graphics/SVG/1.1/DTD/svg11.dtd">
<svg version="1.1" xmlns="http://www.w3.org/2000/svg" xmlns:xlink="http://www.w3.org/1999/xlink" x="0px" y="0px"
	 width="56.707px" height="52.475px" viewBox="0 0 56.707 52.475" enable-background="new 0 0 56.707 52.475" xml:space="preserve">
<g>
	<path fill="#FFFFFF" d="M28.353,5.95c-11.216,0-20.307,9.082-20.307,20.287c0,11.207,9.091,20.289,20.307,20.289
		s20.308-9.082,20.308-20.289C48.661,15.032,39.569,5.95,28.353,5.95"/>
	<g>
		<path fill="#2D2F2F" d="M33.174,32.047c-0.227,0-0.453-0.086-0.626-0.259c-0.346-0.346-0.346-0.907,0-1.253l4.298-4.297
			l-4.298-4.298c-0.346-0.346-0.346-0.907,0-1.253c0.347-0.346,0.907-0.346,1.253,0l4.924,4.925c0.346,0.346,0.346,0.907,0,1.253
			l-4.924,4.924C33.627,31.961,33.401,32.047,33.174,32.047z"/>
		<path fill="#2D2F2F" d="M23.533,32.048c-0.227,0-0.454-0.086-0.626-0.259l-4.924-4.925c-0.346-0.346-0.346-0.907,0-1.253
			l4.924-4.924c0.347-0.346,0.906-0.346,1.253,0c0.346,0.346,0.346,0.907,0,1.253l-4.298,4.298l4.298,4.298
			c0.346,0.346,0.346,0.907,0,1.253C23.986,31.961,23.76,32.048,23.533,32.048z"/>

			<rect x="27.468" y="18.567" transform="matrix(0.9636 0.2674 -0.2674 0.9636 8.047 -6.6255)" fill="#2D2F2F" width="1.772" height="15.342"/>
	</g>
</g>
</svg>
