<svg version="1.1" xmlns="http://www.w3.org/2000/svg" xmlns:xlink="http://www.w3.org/1999/xlink" x="0px" y="0px" width="32px" height="32px" viewBox="0 0 32 32" enable-background="new 0 0 32 32" xml:space="preserve">
<g>
	<g>
		<g>
			<g>
				<path fill="#1DB954" d="M11.475,30.052c-0.066,0-0.132-0.009-0.197-0.028c-0.226-0.066-0.403-0.24-0.474-0.464l-1.754-5.6
					c-0.041-0.133-0.043-0.275-0.004-0.408L15.21,2.454c0.109-0.374,0.5-0.586,0.872-0.478l6.248,1.825
					c0.179,0.052,0.33,0.173,0.419,0.337c0.09,0.164,0.111,0.356,0.058,0.535l-6.164,21.099c-0.039,0.134-0.116,0.253-0.223,0.342
					l-4.493,3.774C11.799,29.996,11.639,30.052,11.475,30.052z M10.456,23.741l1.375,4.39l3.522-2.959l5.907-20.218l-4.897-1.431
					L10.456,23.741z"></path>
				<path fill="#1DB954" d="M20.928,9.27c-0.065,0-0.132-0.009-0.198-0.028l-6.247-1.825c-0.373-0.109-0.587-0.499-0.478-0.872
					c0.109-0.374,0.5-0.585,0.872-0.478l6.247,1.825C21.497,8,21.711,8.39,21.602,8.763C21.513,9.071,21.232,9.27,20.928,9.27z"></path>
			</g>
		</g>
		<g>
			<g>
				<path fill="#1DB954" d="M5.828,31.708c-1.801,0-3.266-1.465-3.266-3.266v-9.88c0-1.025-0.834-1.859-1.859-1.859
					C0.315,16.703,0,16.388,0,16c0-0.388,0.315-0.703,0.703-0.703c1.025,0,1.859-0.834,1.859-1.859v-9.88
					c0-1.8,1.465-3.266,3.266-3.266c0.388,0,0.703,0.315,0.703,0.703S6.217,1.699,5.828,1.699c-1.025,0-1.859,0.834-1.859,1.859
					v9.88c0,1.038-0.486,1.964-1.243,2.562c0.757,0.599,1.243,1.525,1.243,2.562v9.88c0,1.025,0.834,1.859,1.859,1.859
					c0.388,0,0.703,0.315,0.703,0.703C6.532,31.393,6.217,31.708,5.828,31.708z"></path>
			</g>
		</g>
		<g>
			<g>
				<path fill="#1DB954" d="M26.172,31.708c-0.388,0-0.703-0.315-0.703-0.703c0-0.388,0.315-0.703,0.703-0.703
					c1.025,0,1.859-0.834,1.859-1.859v-9.88c0-1.038,0.486-1.964,1.243-2.562c-0.757-0.599-1.243-1.525-1.243-2.562v-9.88
					c0-1.025-0.834-1.859-1.859-1.859c-0.388,0-0.703-0.315-0.703-0.703s0.315-0.703,0.703-0.703c1.801,0,3.266,1.465,3.266,3.266
					v9.88c0,1.025,0.834,1.859,1.859,1.859C31.685,15.297,32,15.612,32,16c0,0.388-0.315,0.703-0.703,0.703
					c-1.025,0-1.859,0.834-1.859,1.859v9.88C29.438,30.243,27.973,31.708,26.172,31.708z"></path>
			</g>
		</g>
	</g>
</g>
</svg>