<svg version="1.1" xmlns="http://www.w3.org/2000/svg" xmlns:xlink="http://www.w3.org/1999/xlink" x="0px" y="0px" width="32px" height="32px" viewBox="0 0 32 32" enable-background="new 0 0 32 32" xml:space="preserve">
<g>
	<g>
		<path fill="#1DB954" d="M26.093,32H5.906c-0.834,0-1.513-0.679-1.513-1.513V1.513C4.393,0.679,5.072,0,5.906,0h20.187
			c0.834,0,1.514,0.679,1.514,1.513v28.974C27.607,31.321,26.928,32,26.093,32z M5.906,1.433c-0.043,0-0.08,0.037-0.08,0.08v28.974
			c0,0.042,0.038,0.08,0.08,0.08h20.187c0.042,0,0.081-0.038,0.081-0.08V1.513c0-0.043-0.038-0.08-0.081-0.08H5.906z"></path>
		<circle fill="#1DB954" cx="16" cy="7.781" r="1.881"></circle>
		<path fill="#1DB954" d="M16,26.682c-3.455,0-6.265-2.811-6.265-6.266S12.545,14.15,16,14.15s6.265,2.811,6.265,6.266
			S19.455,26.682,16,26.682z M16,15.583c-2.665,0-4.833,2.168-4.833,4.833s2.168,4.833,4.833,4.833s4.833-2.168,4.833-4.833
			S18.665,15.583,16,15.583z"></path>
	</g>
</g>
</svg>