<svg version="1.1" xmlns="http://www.w3.org/2000/svg" xmlns:xlink="http://www.w3.org/1999/xlink" x="0px" y="0px" width="32px" height="32px" viewBox="0 0 32 32" enable-background="new 0 0 32 32" xml:space="preserve" class="ios-sdk">
<g>
  <g>
    <g>
      <path fill="#1DB954" d="M25.121,32H6.879c-1.146,0-2.079-0.932-2.079-2.079V2.079C4.801,0.932,5.733,0,6.879,0h18.241
        c1.146,0,2.079,0.932,2.079,2.079v27.843C27.199,31.068,26.267,32,25.121,32z M6.879,1.451c-0.346,0-0.628,0.281-0.628,0.628
        v27.843c0,0.347,0.282,0.628,0.628,0.628h18.241c0.346,0,0.628-0.281,0.628-0.628V2.079c0-0.347-0.282-0.628-0.628-0.628H6.879z"></path>
      <rect x="5.526" y="22.668" fill="#1DB954" width="20.948" height="1.451"></rect>
      <circle fill="#1DB954" cx="16.198" cy="27.767" r="1.224"></circle>
    </g>
  </g>
</g>
</svg>