<svg version="1.1" xmlns="http://www.w3.org/2000/svg" xmlns:xlink="http://www.w3.org/1999/xlink" x="0px" y="0px" width="32px" height="32px" viewBox="0 0 32 32" enable-background="new 0 0 32 32" xml:space="preserve">
<g>
  <g>
    <g>
      <path fill="#1DB954" d="M27.449,31.676H4.551c-0.414,0-0.75-0.336-0.75-0.75s0.336-0.75,0.75-0.75h22.898
        c0.414,0,0.75,0.336,0.75,0.75S27.863,31.676,27.449,31.676z"></path>
      <path fill="#1DB954" d="M30.471,28.654c-0.414,0-0.75-0.336-0.75-0.75V1.824H8.324v26.08c0,0.414-0.336,0.75-0.75,0.75 s-0.75-0.336-0.75-0.75V1.074c0-0.414,0.336-0.75,0.75-0.75h22.897c0.414,0,0.75,0.336,0.75,0.75v26.83 C31.221,28.318,30.885,28.654,30.471,28.654z"></path> 
      <rect x="12.387" y="7.697" fill="#1DB954" width="13.27" height="1.5"></rect>
      <rect x="12.387" y="12.787" fill="#1DB954" width="13.27" height="1.5"></rect>
      <rect x="12.387" y="17.877" fill="#1DB954" width="13.27" height="1.5"></rect>
      <rect x="12.387" y="22.966" fill="#1DB954" width="13.27" height="1.5"></rect>
      <path fill="#1DB954" d="M1.529,28.654c-0.414,0-0.75-0.336-0.75-0.75V6.365c0-0.414,0.336-0.75,0.75-0.75h6.045
        c0.414,0,0.75,0.336,0.75,0.75s-0.336,0.75-0.75,0.75H2.279v20.789C2.279,28.318,1.943,28.654,1.529,28.654z"></path>
      <path fill="#1DB954" d="M27.449,31.676c-0.414,0-0.75-0.336-0.75-0.75s0.336-0.75,0.75-0.75c1.253,0,2.272-1.02,2.272-2.272
        c0-0.414,0.336-0.75,0.75-0.75s0.75,0.336,0.75,0.75C31.221,29.984,29.529,31.676,27.449,31.676z"></path>
      <path fill="#1DB954" d="M4.551,31.676c-2.08,0-3.772-1.692-3.772-3.772c0-0.414,0.336-0.75,0.75-0.75s0.75,0.336,0.75,0.75
        c0,1.253,1.02,2.272,2.272,2.272c1.253,0,2.273-1.02,2.273-2.272c0-0.414,0.336-0.75,0.75-0.75s0.75,0.336,0.75,0.75
        C8.324,29.984,6.632,31.676,4.551,31.676z"></path>
    </g>
  </g>
</g>
</svg>