<svg version="1.1" xmlns="http://www.w3.org/2000/svg" xmlns:xlink="http://www.w3.org/1999/xlink" x="0px" y="0px" width="32px" height="32px" viewBox="0 0 32 32" enable-background="new 0 0 32 32" xml:space="preserve">
<g>
  <g>
    <g>
      <path fill="#1DB954" d="M10.629,32c-0.124,0-0.247-0.032-0.358-0.096c-0.222-0.128-0.359-0.364-0.359-0.62V20.831h1.433v9.21
        l4.296-2.489c0.222-0.129,0.496-0.129,0.718,0l4.295,2.489V20.83h1.433v10.453c0,0.257-0.137,0.493-0.359,0.62
        c-0.222,0.129-0.495,0.129-0.717,0L16,29.001l-5.012,2.903C10.877,31.968,10.753,32,10.629,32z"></path>
    </g>
    <path fill="#1DB954" d="M16,23.015c-6.345,0-11.507-5.162-11.507-11.507S9.655,0,16,0s11.507,5.162,11.507,11.507
      S22.345,23.015,16,23.015z M16,1.433c-5.555,0-10.074,4.52-10.074,10.074S10.445,21.582,16,21.582s10.074-4.52,10.074-10.074
      S21.555,1.433,16,1.433z"></path>
  </g>
</g>
</svg>