<svg version="1.1" xmlns="http://www.w3.org/2000/svg" xmlns:xlink="http://www.w3.org/1999/xlink" x="0px" y="0px" width="32px"
   height="32px" viewBox="0 0 32 32" enable-background="new 0 0 32 32" xml:space="preserve" class="widgets">
<g>
  <g>
    <g>
      <g>
        <path fill="#ff4632" d="M31.285,31.595H0.715C0.32,31.595,0,31.275,0,30.881V1.119c0-0.395,0.32-0.715,0.715-0.715h30.57
          C31.68,0.405,32,0.725,32,1.119v29.761C32,31.275,31.68,31.595,31.285,31.595z M1.43,30.166H30.57V1.834H1.43V30.166z"/>
        <rect x="0.715" y="5.182" fill="#ff4632" width="30.57" height="1.43"/>
        <g>
          <path fill="#ff4632" d="M20.164,23.326c-0.183,0-0.366-0.07-0.506-0.21c-0.279-0.279-0.279-0.731,0-1.01l3.748-3.749
            l-3.748-3.749c-0.279-0.279-0.279-0.731,0-1.01c0.28-0.28,0.731-0.28,1.011,0l4.254,4.254c0.279,0.279,0.279,0.731,0,1.01
            l-4.254,4.254C20.53,23.256,20.347,23.326,20.164,23.326z"/>
          <path fill="#ff4632" d="M11.836,23.326c-0.183,0-0.366-0.07-0.506-0.21l-4.254-4.254c-0.279-0.279-0.279-0.731,0-1.01
            l4.254-4.254c0.28-0.28,0.731-0.28,1.011,0c0.279,0.279,0.279,0.731,0,1.01l-3.748,3.749l3.748,3.749
            c0.279,0.279,0.279,0.731,0,1.01C12.201,23.256,12.019,23.326,11.836,23.326z"/>
        </g>

          <rect x="15.285" y="12.497" transform="matrix(0.9635 0.2677 -0.2677 0.9635 5.4993 -3.6136)" fill="#ff4632" width="1.429" height="11.722"/>
      </g>
    </g>
  </g>
</g>
</svg>
